<?xml version="1.0" encoding="UTF-8"?>
<svg version="1.1" xmlns="http://www.w3.org/2000/svg" width="600" height="600">
<path d="M0 0 C89.1 0 178.2 0 270 0 C270 22.11 270 44.22 270 67 C292.44 67 314.88 67 338 67 C338 89.44 338 111.88 338 135 C360.11 135 382.22 135 405 135 C405 224.1 405 313.2 405 405 C382.89 405 360.78 405 338 405 C338 427.44 338 449.88 338 473 C315.56 473 293.12 473 270 473 C270 495.11 270 517.22 270 540 C180.9 540 91.8 540 0 540 C0 517.89 0 495.78 0 473 C-22.44 473 -44.88 473 -68 473 C-68 450.56 -68 428.12 -68 405 C-90.11 405 -112.22 405 -135 405 C-135 315.9 -135 226.8 -135 135 C-112.89 135 -90.78 135 -68 135 C-68 112.56 -68 90.12 -68 67 C-45.56 67 -23.12 67 0 67 C0 44.89 0 22.78 0 0 Z " fill="#43DBC8" transform="translate(165,30)"/>
<path d="M0 0 C44.22 0 88.44 0 134 0 C134 17.82 134 35.64 134 54 C131.36 53.34 128.72 52.68 126 52 C119.03042032 51.22560226 114.5909297 52.7425118 109 57 C105.77817498 60.15684704 102.8828319 63.53418354 100 67 C98.90002036 68.27445917 97.79609821 69.54553062 96.6875 70.8125 C96.13449219 71.44800781 95.58148438 72.08351563 95.01171875 72.73828125 C91.86012775 76.28152628 88.62550713 79.74743033 85.40087891 83.22412109 C82.74450192 86.09320766 80.11632964 88.9760766 77.5625 91.9375 C74.30075475 95.71214868 70.90256947 99.35285443 67.5 103 C63.48099455 107.30886752 59.5068046 111.64005238 55.65234375 116.09765625 C50.18810476 122.38863589 44.53688652 128.51241604 38.875 134.625 C35.08332612 138.71925134 31.34253064 142.84515696 27.6875 147.0625 C22.20372117 153.35869051 16.5483206 159.50007179 10.875 165.625 C7.09466997 169.70700226 3.36621483 173.82170105 -0.28125 178.0234375 C-2.40400235 180.4646027 -4.5399914 182.89306661 -6.6875 185.3125 C-7.77611328 186.54419922 -7.77611328 186.54419922 -8.88671875 187.80078125 C-13.68173316 192.790787 -13.68173316 192.790787 -17.2890625 193.36328125 C-18.05992187 193.34652344 -18.83078125 193.32976562 -19.625 193.3125 C-20.40101563 193.30863281 -21.17703125 193.30476562 -21.9765625 193.30078125 C-24 193 -24 193 -26 191 C-26.79771806 185.31159421 -24.5898642 181.10169978 -22.23828125 176.0859375 C-21.85061081 175.23504547 -21.46294037 174.38415344 -21.06352234 173.50747681 C-19.82371461 170.79167791 -18.56871087 168.08324497 -17.3125 165.375 C-15.68003872 161.82193955 -14.05266084 158.26655679 -12.42578125 154.7109375 C-11.8399099 153.43059631 -11.8399099 153.43059631 -11.24220276 152.12438965 C-9.11550714 147.46836318 -6.99095364 142.81287969 -4.953125 138.1171875 C-4.39286621 136.83110596 -4.39286621 136.83110596 -3.82128906 135.51904297 C-1.80917405 129.34752017 -1.96767881 122.63947196 -4.4375 116.625 C-7.2361346 111.98004396 -10.98142999 109.0030577 -16 107 C-23.1663735 105.76869479 -29.78227274 106.18159805 -35.87524414 110.37744141 C-44.99903278 117.34477443 -48.40428452 127.00495272 -52.5625 137.3125 C-53.25725549 139.00363713 -53.95315612 140.69430422 -54.65014648 142.38452148 C-56.43708099 146.73061769 -58.20334241 151.08480026 -59.96386719 155.44165039 C-60.96645904 157.91718292 -61.975845 160.38980737 -62.98828125 162.86132812 C-79.52066944 203.22575083 -92.25285264 238.14317987 -75 281 C-61.29306641 312.63497968 -36.02464784 337.22674046 -4 350 C1.25862421 351.95678139 6.58004972 353.55584928 12 355 C13.37478516 355.36931641 13.37478516 355.36931641 14.77734375 355.74609375 C37.59185295 360.84332616 62.42223842 355.14287355 82 343 C90.32781577 337.16850764 97.98947196 330.52454183 105.6640625 323.87109375 C108.56677374 321.35999187 111.51856887 318.91749475 114.5 316.5 C118.7279248 313.06791987 122.8752789 309.55448829 127 306 C132.01314773 301.68065728 137.08537515 297.44902723 142.22265625 293.27734375 C145.34396367 290.71795946 148.4245003 288.11406209 151.5 285.5 C155.46903543 282.12716411 159.46017021 278.78823355 163.5 275.5 C169.17017152 270.88168639 174.74835171 266.1599937 180.32080078 261.42480469 C182.58851901 259.50064016 184.86217469 257.58355132 187.13549805 255.66601562 C189.76119801 253.44894476 192.38055081 251.22445289 195 249 C195.80953125 248.31679688 196.6190625 247.63359375 197.453125 246.9296875 C204.77570688 240.97409548 204.77570688 240.97409548 208.2734375 232.609375 C208.59902157 226.03742081 208.59902157 226.03742081 205.6875 220.375 C202.02552886 217.13883946 199.13234886 216.64546968 194.29296875 216.72094727 C186.41216201 217.68003608 179.73418123 222.18951407 173.5625 226.875 C172.79808594 227.44089844 172.03367187 228.00679687 171.24609375 228.58984375 C169.6361181 229.78290388 168.02954334 230.98056596 166.42626953 232.18261719 C163.25511776 234.55794963 160.06421218 236.90590086 156.87280273 239.25390625 C155.28926815 240.41919479 153.70674956 241.58586524 152.12524414 242.75390625 C145.86135772 247.37922849 139.56638656 251.96015653 133.23779297 256.49658203 C129.98188585 258.83200903 126.74295524 261.17726376 123.5703125 263.625 C122.59835937 264.3675 121.62640625 265.11 120.625 265.875 C119.81289063 266.51179688 119.00078125 267.14859375 118.1640625 267.8046875 C116 269 116 269 113.7734375 268.7578125 C112 268 112 268 111 267 C110.10103959 260.26139277 110.10103959 260.26139277 112.23291016 257.27001953 C114.01624848 255.57576952 115.86361296 254.06336703 117.8125 252.5625 C118.49957031 252.00175781 119.18664062 251.44101562 119.89453125 250.86328125 C121.91363966 249.22087217 123.9544085 247.60921247 126 246 C127.83595864 244.50321445 129.66963125 243.00361609 131.5 241.5 C132.36882812 240.79617188 133.23765625 240.09234375 134.1328125 239.3671875 C138.25443714 235.96432029 142.27730081 232.45141301 146.30810547 228.94189453 C151.96419371 224.01987908 157.67768348 219.16927867 163.41162109 214.33837891 C166.08908953 212.08232573 168.76372957 209.82293394 171.4375 207.5625 C171.96988281 207.11261719 172.50226563 206.66273438 173.05078125 206.19921875 C177.69125668 202.27266262 182.29856653 198.30806586 186.90551758 194.34228516 C190.43322495 191.31488156 194.0053114 188.35509383 197.625 185.4375 C201.65986414 182.14495508 205.6164572 178.78133549 209.5 175.3125 C210.96953125 174.00732422 210.96953125 174.00732422 212.46875 172.67578125 C216.08338229 168.85475792 218.42052224 164.96987929 218.5 159.625 C218.30806775 154.4602776 216.38798825 150.8385186 213 147 C208.63128178 143.67145278 204.28607236 143.59419725 198.9765625 143.40625 C191.95027676 144.80781881 186.22916234 150.23405931 180.8125 154.6875 C179.49820888 155.75360726 178.18309038 156.81869528 176.8671875 157.8828125 C176.21717773 158.40907227 175.56716797 158.93533203 174.89746094 159.47753906 C172.10937309 161.71461007 169.27830179 163.89300153 166.4375 166.0625 C159.57470843 171.31150592 152.78600953 176.65229855 146 182 C137.59066589 188.62347436 129.16625297 195.2268028 120.70141602 201.77929688 C117.07899437 204.58676109 113.47536582 207.41121135 109.91796875 210.30078125 C109.28568359 210.81060547 108.65339844 211.32042969 108.00195312 211.84570312 C106.8291014 212.79383191 105.66198039 213.74911363 104.50195312 214.71289062 C101.41207015 217.20079887 99.01016188 218.74672662 95 219 C93.1875 217.9375 93.1875 217.9375 92 216 C91.51953125 213.27734375 91.51953125 213.27734375 92 210 C93.84088674 207.51828045 96.15782978 205.62452356 98.5 203.625 C99.9624856 202.31974176 101.42051763 201.00948305 102.875 199.6953125 C103.68453125 198.96473633 104.4940625 198.23416016 105.328125 197.48144531 C111.07544152 192.14375114 116.54022837 186.51075782 122.05004883 180.92999268 C131.61793352 171.24509897 131.61793352 171.24509897 135.90625 167.59375 C141.94768775 162.43219344 147.41873734 156.64751847 153 151 C165.81047563 138.03744976 165.81047563 138.03744976 171.97509766 132.78466797 C176.04955719 129.19360224 179.8813163 125.34336173 183.72827148 121.51196289 C185.18878533 120.06122327 186.65965489 118.62152727 188.13085938 117.18164062 C193.23627079 112.1311389 197.43557963 107.25065021 201 101 C201.33 101 201.66 101 202 101 C202 112.22 202 123.44 202 135 C206.82496094 134.98839844 211.64992188 134.97679687 216.62109375 134.96484375 C219.66992321 134.95973683 222.71874743 134.95492305 225.76757812 134.95117188 C230.61142059 134.94518404 235.45524422 134.93808535 240.29907227 134.92456055 C244.20235971 134.91372957 248.10562699 134.90772272 252.0089283 134.90512276 C253.50133647 134.90326889 254.99374348 134.899649 256.48614311 134.89426994 C258.56948139 134.88705669 260.65273531 134.88600917 262.73608398 134.88647461 C263.92411118 134.884254 265.11213837 134.88203339 266.33616638 134.87974548 C269 135 269 135 270 136 C270.09788941 137.43027266 270.12631791 138.86536229 270.12698364 140.29898071 C270.13121716 141.69919621 270.13121716 141.69919621 270.13553619 143.1276989 C270.13350945 144.16530924 270.1314827 145.20291958 270.12939453 146.27197266 C270.13112419 147.36492708 270.13285385 148.45788151 270.13463593 149.58395576 C270.13904149 153.27733941 270.13602011 156.97067813 270.1328125 160.6640625 C270.13357035 162.62907893 270.13433372 164.5940954 270.13556135 166.5591116 C270.13997048 173.6671302 270.13694385 180.77512896 270.13056505 187.88314533 C270.12591393 193.11287286 270.12351845 198.34259727 270.12231445 203.57232666 C270.10390512 270.71753749 269.59174815 337.85771853 269 405 C246.89 405 224.78 405 202 405 C202 427.44 202 449.88 202 473 C135.34 473 68.68 473 0 473 C0 450.56 0 428.12 0 405 C-44.55 405 -89.1 405 -135 405 C-135.62841676 330.68971799 -135.62841676 330.68971799 -135.7734375 308.953125 C-135.77855583 308.18999654 -135.78367415 307.42686808 -135.78894758 306.64061451 C-136.02313097 271.53732425 -136.11474894 236.43426886 -136.12283063 201.33023822 C-136.12412031 196.10376221 -136.12787807 190.87729183 -136.13256836 185.65081787 C-136.13864214 178.6242131 -136.13870912 171.59762771 -136.13431931 164.57102203 C-136.13332181 161.98465232 -136.1339118 159.39828147 -136.13615799 156.81191254 C-136.13867869 153.2985761 -136.13495457 149.78530424 -136.12939453 146.27197266 C-136.13142128 145.23436232 -136.13344803 144.19675198 -136.13553619 143.1276989 C-136.13271385 142.1942219 -136.12989151 141.2607449 -136.12698364 140.29898071 C-136.12660662 139.48708094 -136.12622959 138.67518116 -136.12584114 137.83867836 C-136 136 -136 136 -135 135 C-132.91380978 134.90582227 -130.82439523 134.88257122 -128.73608398 134.88647461 C-128.07184701 134.88635407 -127.40761003 134.88623354 -126.72324467 134.88610935 C-124.56416079 134.88685824 -122.40516227 134.89448532 -120.24609375 134.90234375 C-118.27195496 134.90385437 -118.27195496 134.90385437 -116.25793457 134.90539551 C-111.31778091 134.91064752 -106.37763963 134.92460861 -101.4375 134.9375 C-90.403125 134.958125 -79.36875 134.97875 -68 135 C-68 112.89 -68 90.78 -68 68 C-45.56 68 -23.12 68 0 68 C0 45.56 0 23.12 0 0 Z " fill="#138BB1" transform="translate(233,97)"/>
<path d="M0 0 C4.50696375 2.19110176 7.74929333 5.16134914 10.375 9.4375 C12.03902641 14.49120983 12.49381735 20.45208431 10.609375 25.48046875 C7.51267285 30.76885094 3.13835319 35.12711312 -1.01953125 39.5859375 C-3.47776543 42.27635872 -5.78195609 45.03353236 -8.0625 47.875 C-12.20428693 53.00641744 -16.6000974 57.84489182 -21.078125 62.6796875 C-24.81255078 66.72340621 -28.41578477 70.87153164 -32.00683594 75.04248047 C-33.62826058 76.92527672 -35.25116188 78.80678486 -36.875 80.6875 C-37.43654785 81.3379126 -37.9980957 81.9883252 -38.57666016 82.65844727 C-42.10882107 86.73343382 -45.70539289 90.73616723 -49.375 94.6875 C-53.56278372 99.21466995 -57.49577794 103.87843931 -61.33984375 108.69921875 C-62.99630434 110.68413991 -64.64943392 112.54183468 -66.44140625 114.39453125 C-66.90925537 114.88300537 -67.37710449 115.37147949 -67.85913086 115.87475586 C-69.17799032 117.23806346 -70.5143166 118.58441009 -71.8515625 119.9296875 C-73.93826557 122.31224639 -73.93826557 122.31224639 -73.3984375 125.2578125 C-73.14320313 125.97710937 -72.88796875 126.69640625 -72.625 127.4375 C-70.50013215 128.52616987 -70.50013215 128.52616987 -67.625 128.4375 C-64.87719458 126.65011644 -62.67432074 124.32192682 -60.375 122 C-58.94173917 120.60382482 -57.50813427 119.20800278 -56.07421875 117.8125 C-54.97086182 116.72388672 -54.97086182 116.72388672 -53.84521484 115.61328125 C-50.34653161 112.18461785 -46.76473595 108.84627265 -43.1875 105.5 C-41.76251358 104.15939314 -40.338037 102.81824416 -38.9140625 101.4765625 C-37.85300293 100.47737793 -37.85300293 100.47737793 -36.77050781 99.45800781 C-36.06249023 98.79124023 -35.35447266 98.12447266 -34.625 97.4375 C-25.64021785 88.97618263 -16.65083155 80.51994122 -7.64428711 72.08178711 C-2.79819468 67.54039802 2.03984772 62.99053286 6.875 58.4375 C8.99715901 56.44018822 11.11941825 54.44298298 13.24169922 52.44580078 C14.67864158 51.09305554 16.11515665 49.73985628 17.55126953 48.38623047 C19.67879067 46.38118413 21.80799556 44.37793955 23.9375 42.375 C24.56785156 41.78009766 25.19820312 41.18519531 25.84765625 40.57226562 C41.92863464 25.46227851 41.92863464 25.46227851 50.125 24.875 C56.86660813 25.09904136 62.20359255 28.2252239 66.890625 32.97265625 C69.91646628 37.30898512 69.88632237 42.13823665 70.00390625 47.27734375 C68.57400829 54.46235896 63.36348013 59.89386101 58.26171875 64.87890625 C57.68847366 65.45027817 57.11522858 66.02165009 56.52461243 66.6103363 C55.3204619 67.80781694 54.11274535 69.00172163 52.90161133 70.19213867 C51.07049027 71.9921455 49.2502117 73.80255739 47.43164062 75.61523438 C37.96906913 85.01369346 37.96906913 85.01369346 33.33203125 88.96484375 C27.33536906 94.0820484 21.91203249 99.83473676 16.375 105.4375 C3.74079206 118.22169006 3.74079206 118.22169006 -0.5859375 121.8984375 C-6.8389687 127.22023595 -12.48119589 133.22852919 -18.25 139.0625 C-20.63504458 141.4743285 -23.02351733 143.8826873 -25.4140625 146.2890625 C-26.21585434 147.10330185 -26.21585434 147.10330185 -27.03384399 147.93399048 C-29.58226123 150.49877604 -32.14083266 152.8832037 -34.98193359 155.12255859 C-37.93877714 157.2132932 -37.93877714 157.2132932 -38.125 160.625 C-37.87914188 163.56497383 -37.87914188 163.56497383 -35.625 165.4375 C-30.36557015 165.40907065 -27.08785623 161.86154684 -23.3125 158.625 C-21.88106644 157.4284007 -20.44741255 156.23445322 -19.01171875 155.04296875 C-17.91802979 154.13490479 -17.91802979 154.13490479 -16.80224609 153.20849609 C-13.48735323 150.51212551 -10.06403225 147.97235159 -6.625 145.4375 C-0.41180402 140.83894251 5.61294761 136.05021999 11.59033203 131.15014648 C16.62084409 127.03163827 21.72943876 123.04174338 26.8984375 119.09765625 C31.08001901 115.90683701 35.22577643 112.6702058 39.375 109.4375 C40.90875747 108.24466733 42.44261032 107.05195727 43.9765625 105.859375 C46.74505754 103.70677067 49.51042217 101.55025598 52.2734375 99.390625 C53.43215146 98.48940303 54.59099651 97.58834958 55.75 96.6875 C56.74773437 95.90890625 57.74546875 95.1303125 58.7734375 94.328125 C64.62403388 90.07634025 69.22274875 89.77313994 76.375 90.4375 C81.83608074 92.32405516 84.62639605 95.37586493 87.45703125 100.33203125 C89.2957513 104.54935084 89.19434641 109.04211666 87.7109375 113.37890625 C82.24496997 123.37203009 71.00838776 131.04558368 62.3125 138.03515625 C58.81557392 140.89500936 55.40576741 143.84519707 52 146.8125 C45.70082187 152.29762315 39.35103915 157.71745348 32.96337891 163.09912109 C30.28591047 165.35517427 27.61127043 167.61456606 24.9375 169.875 C24.13892578 170.54982422 24.13892578 170.54982422 23.32421875 171.23828125 C19.88252696 174.15048199 16.45772218 177.08160811 13.0402832 180.0222168 C8.3166089 184.08626442 3.57815314 188.12228307 -1.25 192.0625 C-2.11496094 192.77535156 -2.97992188 193.48820313 -3.87109375 194.22265625 C-5.88194898 195.83989727 -7.90264179 197.39659472 -9.97265625 198.93359375 C-15.81344657 202.99675277 -15.81344657 202.99675277 -19.37890625 208.84765625 C-19.45406171 211.27836977 -19.45406171 211.27836977 -18.625 214.4375 C-16.82394746 215.17963217 -16.82394746 215.17963217 -14.625 215.4375 C-12.61925326 214.50037092 -12.61925326 214.50037092 -10.7109375 212.9296875 C-9.9593335 212.3617749 -9.20772949 211.7938623 -8.43334961 211.20874023 C-7.22884155 210.27010132 -7.22884155 210.27010132 -6 209.3125 C-4.28064196 208.00819917 -2.56057321 206.70483477 -0.83984375 205.40234375 C0.03172363 204.73702637 0.90329102 204.07170898 1.80126953 203.38623047 C5.63381728 200.4843716 9.53155782 197.67685447 13.4375 194.875 C14.92203559 193.8062126 16.4064102 192.73720158 17.890625 191.66796875 C18.99374023 190.87398682 18.99374023 190.87398682 20.11914062 190.06396484 C22.4313066 188.39690318 24.73958082 186.72457813 27.046875 185.05078125 C30.79739341 182.33044816 34.55456125 179.6196008 38.31787109 176.91699219 C39.64567808 175.96203013 40.97166375 175.00452814 42.29541016 174.04394531 C58.41847842 162.35980935 58.41847842 162.35980935 69.375 163.4375 C73.49885927 165.21825741 76.17144397 167.52006705 78.375 171.4375 C79.14900859 176.55846592 79.09450282 180.9085565 76.875 185.625 C71.17974964 192.03215665 65.11302142 197.5842418 58.4296875 202.953125 C55.02481935 205.72230165 51.69698206 208.5700146 48.375 211.4375 C43.36225013 215.75729297 38.28960885 219.98848577 33.15234375 224.16015625 C30.03103633 226.71954054 26.9504997 229.32343791 23.875 231.9375 C19.02545949 236.05857792 14.12339036 240.10741483 9.1875 244.125 C5.4940609 247.1618277 1.85201514 250.25710955 -1.79125977 253.35375977 C-5.18454109 256.2329532 -8.60767786 259.06954237 -12.0625 261.875 C-15.64695488 264.78931766 -19.17382817 267.75747507 -22.66625977 270.78051758 C-41.49725638 287.06783719 -58.6411806 299.64817198 -83.625 304.4375 C-84.40875 304.623125 -85.1925 304.80875 -86 305 C-111.47725161 309.2462086 -138.94011686 299.36895777 -159.87890625 285.2421875 C-166.50293357 280.38625943 -172.65037188 275.06606789 -178.625 269.4375 C-179.28886719 268.83808594 -179.95273438 268.23867188 -180.63671875 267.62109375 C-201.57222447 247.95955389 -214.63834007 216.87145207 -215.8984375 188.390625 C-216.76417233 154.54069077 -200.16850793 123.19081314 -187.21412659 92.59977722 C-185.41348073 88.33910564 -183.66066943 84.06316459 -181.94921875 79.765625 C-181.55879395 78.80333984 -181.16836914 77.84105469 -180.76611328 76.84960938 C-180.08335561 75.16450533 -179.41452544 73.47363324 -178.76513672 71.77539062 C-175.62811334 64.15571277 -169.60900703 57.41599323 -161.953125 54.0703125 C-155.95133302 52.43895294 -149.64899722 52.09638535 -143.89453125 54.6484375 C-138.32821752 58.22613344 -134.68821504 62.05592789 -132.625 68.4375 C-131.78201958 74.55132641 -132.15176097 80.04955512 -134.640625 85.71875 C-135.09381104 86.75781494 -135.54699707 87.79687988 -136.01391602 88.86743164 C-136.54557373 90.0455542 -137.07723145 91.22367676 -137.625 92.4375 C-137.92614716 93.1059494 -138.22729431 93.7743988 -138.53756714 94.46310425 C-140.93712937 99.77879744 -143.37200287 105.07800566 -145.8125 110.375 C-146.90050126 112.7390551 -147.98786801 115.10339578 -149.07380676 117.46839905 C-149.7436678 118.92702192 -150.41473089 120.38509357 -151.08720398 121.84251404 C-154.89886766 129.80353854 -154.89886766 129.80353854 -155.625 138.4375 C-154.09548974 139.96701026 -152.69139586 139.7914351 -150.5625 139.9375 C-145.52937863 139.85017455 -143.24054132 138.15329166 -139.7265625 134.6953125 C-139.03304687 133.95023438 -138.33953125 133.20515625 -137.625 132.4375 C-136.80773437 131.56867188 -135.99046875 130.69984375 -135.1484375 129.8046875 C-130.85067508 125.14336813 -126.68294055 120.37034241 -122.5234375 115.5859375 C-118.75749319 111.32406637 -114.88433997 107.1583084 -111.03466797 102.97216797 C-106.03381649 97.52787417 -101.0336901 92.08290308 -96.1875 86.5 C-91.90057108 81.56902542 -87.45709771 76.78112622 -83.03466797 71.97216797 C-78.03381649 66.52787417 -73.0336901 61.08290308 -68.1875 55.5 C-63.90057108 50.56902542 -59.45709771 45.78112622 -55.03466797 40.97216797 C-47.56225348 32.83903663 -47.56225348 32.83903663 -40.25 24.5625 C-37.06407011 20.89868062 -33.79011383 17.32003843 -30.5 13.75 C-29.99678223 13.2029541 -29.49356445 12.6559082 -28.97509766 12.09228516 C-13.10123639 -5.0778282 -13.10123639 -5.0778282 0 0 Z " fill="#FDFEFE" transform="translate(363.625,149.5625)"/>
<path d="M0 0 C22.11 0 44.22 0 67 0 C67 44.55 67 89.1 67 135 C44.89 135 22.78 135 0 135 C0 157.44 0 179.88 0 203 C-66.66 203 -133.32 203 -202 203 C-202 180.56 -202 158.12 -202 135 C-157.45 135 -112.9 135 -67 135 C-67 112.89 -67 90.78 -67 68 C-44.89 68 -22.78 68 0 68 C0 45.56 0 23.12 0 0 Z " fill="#3D89C7" transform="translate(435,367)"/>
<path d="M0 0 C44.22 0 88.44 0 134 0 C134 17.82 134 35.64 134 54 C131.36 53.34 128.72 52.68 126 52 C119.03042032 51.22560226 114.5909297 52.7425118 109 57 C105.77817498 60.15684704 102.8828319 63.53418354 100 67 C98.90002036 68.27445917 97.79609821 69.54553062 96.6875 70.8125 C96.13449219 71.44800781 95.58148438 72.08351563 95.01171875 72.73828125 C91.86012775 76.28152628 88.62550713 79.74743033 85.40087891 83.22412109 C82.74450192 86.09320766 80.11632964 88.9760766 77.5625 91.9375 C74.30075475 95.71214868 70.90256947 99.35285443 67.5 103 C63.48099455 107.30886752 59.5068046 111.64005238 55.65234375 116.09765625 C50.18810476 122.38863589 44.53688652 128.51241604 38.875 134.625 C35.08332612 138.71925134 31.34253064 142.84515696 27.6875 147.0625 C22.20372117 153.35869051 16.5483206 159.50007179 10.875 165.625 C7.09466997 169.70700226 3.36621483 173.82170105 -0.28125 178.0234375 C-2.40400235 180.4646027 -4.5399914 182.89306661 -6.6875 185.3125 C-7.77611328 186.54419922 -7.77611328 186.54419922 -8.88671875 187.80078125 C-13.68173316 192.790787 -13.68173316 192.790787 -17.2890625 193.36328125 C-18.05992187 193.34652344 -18.83078125 193.32976562 -19.625 193.3125 C-20.40101563 193.30863281 -21.17703125 193.30476562 -21.9765625 193.30078125 C-24 193 -24 193 -26 191 C-26.79771806 185.31159421 -24.5898642 181.10169978 -22.23828125 176.0859375 C-21.85061081 175.23504547 -21.46294037 174.38415344 -21.06352234 173.50747681 C-19.82371461 170.79167791 -18.56871087 168.08324497 -17.3125 165.375 C-15.68003872 161.82193955 -14.05266084 158.26655679 -12.42578125 154.7109375 C-11.8399099 153.43059631 -11.8399099 153.43059631 -11.24220276 152.12438965 C-9.11550714 147.46836318 -6.99095364 142.81287969 -4.953125 138.1171875 C-4.39286621 136.83110596 -4.39286621 136.83110596 -3.82128906 135.51904297 C-1.80917405 129.34752017 -1.96767881 122.63947196 -4.4375 116.625 C-7.2361346 111.98004396 -10.98142999 109.0030577 -16 107 C-23.1663735 105.76869479 -29.78227274 106.18159805 -35.87524414 110.37744141 C-44.99903278 117.34477443 -48.40428452 127.00495272 -52.5625 137.3125 C-53.25725549 139.00363713 -53.95315612 140.69430422 -54.65014648 142.38452148 C-56.43708099 146.73061769 -58.20334241 151.08480026 -59.96386719 155.44165039 C-60.96645904 157.91718292 -61.975845 160.38980737 -62.98828125 162.86132812 C-78.33075445 197.31443788 -78.33075445 197.31443788 -84.3125 234 C-84.31056641 235.50143555 -84.31056641 235.50143555 -84.30859375 237.03320312 C-84.21059033 244.71177085 -83.27510811 251.91153655 -81.65625 259.40625 C-81 263 -81 263 -81 270 C-99.15 270 -117.3 270 -136 270 C-136.02254656 252.54583964 -136.0409789 235.09169165 -136.05181217 217.63752079 C-136.05697525 209.53381391 -136.06401816 201.43011669 -136.07543945 193.32641602 C-136.08538594 186.26577878 -136.09185334 179.20514854 -136.09408849 172.14450449 C-136.09539566 168.40365542 -136.09848189 164.66282638 -136.10573006 160.92198372 C-136.11374324 156.75274887 -136.11399116 152.58354916 -136.11352539 148.41430664 C-136.11712067 147.16490295 -136.12071594 145.91549927 -136.12442017 144.62823486 C-136.1230455 143.49936356 -136.12167084 142.37049225 -136.12025452 141.20741272 C-136.12117631 140.22017243 -136.1220981 139.23293215 -136.12304783 138.21577549 C-136 136 -136 136 -135 135 C-132.91380978 134.90582227 -130.82439523 134.88257122 -128.73608398 134.88647461 C-128.07184701 134.88635407 -127.40761003 134.88623354 -126.72324467 134.88610935 C-124.56416079 134.88685824 -122.40516227 134.89448532 -120.24609375 134.90234375 C-118.27195496 134.90385437 -118.27195496 134.90385437 -116.25793457 134.90539551 C-111.31778091 134.91064752 -106.37763963 134.92460861 -101.4375 134.9375 C-90.403125 134.958125 -79.36875 134.97875 -68 135 C-68 112.89 -68 90.78 -68 68 C-45.56 68 -23.12 68 0 68 C0 45.56 0 23.12 0 0 Z " fill="#16A9B1" transform="translate(233,97)"/>
<path d="M0 0 C44.55 0 89.1 0 135 0 C135 44.22 135 88.44 135 134 C112.89 134 90.78 134 68 134 C67.67 123.11 67.34 112.22 67 101 C66.67 101 66.34 101 66 101 C65.94392578 99.91332031 65.94392578 99.91332031 65.88671875 98.8046875 C65.4740764 90.90184041 65.4740764 90.90184041 62 84 C56.63483603 79.61676226 51.44142236 76.95637591 44.41796875 77.51171875 C34.83656452 79.44657421 28.81880063 86.88539987 22.30078125 93.625 C19.27626675 96.74950551 16.10703887 99.61999687 12.7890625 102.4296875 C10.05498094 104.82947087 7.54736728 107.44409678 4.99609375 110.03515625 C3.07892823 111.92230744 1.10424678 113.68685375 -0.9375 115.4375 C-3.92801716 118.00665271 -6.73116684 120.69317256 -9.5 123.5 C-12.88241399 126.9288279 -16.38070442 130.12048518 -20.03515625 133.25390625 C-22.10820324 135.09615675 -24.05435802 137.02401662 -26 139 C-28.55990134 141.59982183 -31.1677954 144.06268398 -33.9375 146.4375 C-36.92801716 149.00665271 -39.73116684 151.69317256 -42.5 154.5 C-45.85985649 157.90588192 -49.33397356 161.07245051 -52.96484375 164.18359375 C-55.25544954 166.2279924 -57.4062614 168.37707374 -59.5625 170.5625 C-68.3347802 179.36497738 -68.3347802 179.36497738 -71 181 C-73.8125 181 -73.8125 181 -76 180 C-76.66 179.34 -77.32 178.68 -78 178 C-77.81021241 173.3343884 -75.65511105 171.13722902 -72.5 167.875 C-71.57575063 166.90068438 -70.65392541 165.92406419 -69.734375 164.9453125 C-69.03924805 164.20716309 -69.03924805 164.20716309 -68.33007812 163.45410156 C-66.36287366 161.30346467 -64.56195249 159.03197024 -62.75 156.75 C-58.46770037 151.43508911 -53.84401719 146.50683397 -49.15771484 141.55224609 C-44.97620284 137.1084711 -41.08095111 132.51219525 -37.2734375 127.7421875 C-34.62657785 124.54958359 -31.83433357 121.52559132 -29 118.5 C-24.56412113 113.76404288 -20.41236969 108.88524656 -16.3515625 103.8203125 C-13.63484543 100.56205714 -10.77518748 97.4692804 -7.875 94.375 C3.61979167 82.73070779 3.61979167 82.73070779 7.25 67.53125 C6.58099981 60.7576231 3.77658227 57.77658227 -1 53 C-0.67 35.51 -0.34 18.02 0 0 Z " fill="#2FC8BE" transform="translate(367,98)"/>
<path d="M0 0 C1.87425997 2.81138995 2.82308284 5.30576494 3.8503418 8.49487305 C14.56125581 41.47215066 39.16065719 65.38113735 69.4921875 80.90625 C73.86325181 83.03903785 78.34967737 84.59456916 83 86 C82.01 86.495 82.01 86.495 81 87 C81 104.16 81 121.32 81 139 C36.45 139 -8.1 139 -54 139 C-54 94.45 -54 49.9 -54 4 C-36.18 4 -18.36 4 0 4 C0 2.68 0 1.36 0 0 Z " fill="#2B88BF" transform="translate(152,363)"/>
<path d="M0 0 C22.11 0 44.22 0 67 0 C67.62279268 36.43091986 67.62279268 36.43091986 67.77294922 47.56884766 C67.78873319 48.73955712 67.78873319 48.73955712 67.80483603 49.93391728 C68.03864212 67.64722196 68.09832934 85.35953638 68.09765625 103.07421875 C68.09767474 103.74529482 68.09769323 104.41637089 68.09771228 105.1077826 C68.09721304 116.30104064 68.07832847 127.49424843 68.0625 138.6875 C68.041875 159.580625 68.02125 180.47375 68 202 C112.55 202 157.1 202 203 202 C203 224.44 203 246.88 203 270 C180.56 270 158.12 270 135 270 C135 247.89 135 225.78 135 203 C112.56 203 90.12 203 67 203 C67 180.56 67 158.12 67 135 C44.89 135 22.78 135 0 135 C0 90.45 0 45.9 0 0 Z " fill="#40ACC8" transform="translate(30,300)"/>
<path d="M0 0 C22.11 0 44.22 0 67 0 C67 66.66 67 133.32 67 202 C44.89 202 22.78 202 0 202 C0 224.44 0 246.88 0 270 C-22.44 270 -44.88 270 -68 270 C-68 269.67 -68 269.34 -68 269 C-45.89 269 -23.78 269 -1 269 C-1.01160156 260.80929687 -1.02320313 252.61859375 -1.03515625 244.1796875 C-1.04744873 232.74479325 -1.05602851 221.30989878 -1.0625 209.875 C-1.0629343 209.1301439 -1.06336861 208.38528781 -1.06381607 207.61786032 C-1.09198485 157.93071571 -0.90022609 108.2480239 -0.5 58.5625 C-0.49402628 57.81929347 -0.48805257 57.07608694 -0.48189783 56.310359 C-0.33084071 37.54014985 -0.16713697 18.770079 0 0 Z " fill="#41B2C8" transform="translate(503,233)"/>
<path d="M0 0 C44.55 0 89.1 0 135 0 C135 22.11 135 44.22 135 67 C112.56 67 90.12 67 67 67 C67 89.11 67 111.22 67 134 C44.89 134 22.78 134 0 134 C0 89.78 0 45.56 0 0 Z " fill="#2EC8BE" transform="translate(98,98)"/>
<path d="M0 0 C22.44 0 44.88 0 68 0 C68.09440619 45.03175237 67.76965903 89.97494648 67 135 C44.89 135 22.78 135 0 135 C0 90.45 0 45.9 0 0 Z " fill="#40B8C8" transform="translate(30,165)"/>
<path d="M0 0 C44.22 0 88.44 0 134 0 C134 17.82 134 35.64 134 54 C131.36 53.34 128.72 52.68 126 52 C119.03861153 51.22651239 114.57896774 52.73539923 109 57 C106.54849721 59.43967882 104.2762937 61.95753258 102.04296875 64.59765625 C100.12530748 66.8526499 98.12045169 68.93672903 96 71 C96 70.01 96 69.02 96 68 C64.32 68 32.64 68 0 68 C0 45.56 0 23.12 0 0 Z " fill="#18BCB1" transform="translate(233,97)"/>
<path d="M0 0 C27.06 0 54.12 0 82 0 C80.87515695 8.99874439 80.87515695 8.99874439 79.65234375 11.83203125 C79.38084503 12.47559067 79.10934631 13.11915009 78.82962036 13.7822113 C78.53522064 14.45220657 78.24082092 15.12220184 77.9375 15.8125 C77.63012909 16.53538712 77.32275818 17.25827423 77.006073 18.00306702 C76.35059615 19.54312152 75.690897 21.08138483 75.02728271 22.61795044 C73.2882409 26.65041757 71.58729202 30.69892534 69.8828125 34.74609375 C69.5450882 35.54615341 69.20736389 36.34621307 68.85940552 37.17051697 C64.58081897 47.32877826 60.56059843 57.56560594 57 68 C56.57871826 69.22396484 56.57871826 69.22396484 56.14892578 70.47265625 C50.33898542 87.89185588 50.48686974 105.55032285 54.34375 123.40625 C55 127 55 127 55 134 C36.85 134 18.7 134 0 134 C0 89.78 0 45.56 0 0 Z " fill="#149CB1" transform="translate(97,233)"/>
<path d="M0 0 C1.31635437 0.0075531 1.31635437 0.0075531 2.65930176 0.01525879 C5.90992312 0.04124578 9.16007553 0.1110523 12.41015625 0.17578125 C19.69078125 0.27890625 26.97140625 0.38203125 34.47265625 0.48828125 C34.47265625 22.59828125 34.47265625 44.70828125 34.47265625 67.48828125 C-9.74734375 67.48828125 -53.96734375 67.48828125 -99.52734375 67.48828125 C-99.52734375 50.32828125 -99.52734375 33.16828125 -99.52734375 15.48828125 C-94.31649371 16.1396375 -89.74424039 16.8609697 -84.71484375 18.05078125 C-61.4486264 23.00496301 -37.70026161 17.69353092 -17.52734375 5.48828125 C-16.52541992 4.63459961 -15.52349609 3.78091797 -14.49121094 2.90136719 C-9.87416124 -0.40006771 -5.50835696 -0.15056634 0 0 Z " fill="#0D6DB1" transform="translate(332.52734375,434.51171875)"/>
<path d="M0 0 C41.58 0 83.16 0 126 0 C126 22.11 126 44.22 126 67 C103.89 67 81.78 67 59 67 C58.67 56.11 58.34 45.22 58 34 C57.67 34 57.34 34 57 34 C56.94392578 32.91332031 56.94392578 32.91332031 56.88671875 31.8046875 C56.4740764 23.90184041 56.4740764 23.90184041 53 17 C47.63483603 12.61676226 42.44142236 9.95637591 35.41796875 10.51171875 C25.83656452 12.44657421 19.81880063 19.88539987 13.30078125 26.625 C10.27626675 29.74950551 7.10703887 32.61999687 3.7890625 35.4296875 C1.05498094 37.82947087 -1.45263272 40.44409678 -4.00390625 43.03515625 C-5.92107177 44.92230744 -7.89575322 46.68685375 -9.9375 48.4375 C-12.92801716 51.00665271 -15.73116684 53.69317256 -18.5 56.5 C-21.88241399 59.9288279 -25.38070442 63.12048518 -29.03515625 66.25390625 C-31.10820324 68.09615675 -33.05435802 70.02401662 -35 72 C-37.55990134 74.59982183 -40.1677954 77.06268398 -42.9375 79.4375 C-45.92801716 82.00665271 -48.73116684 84.69317256 -51.5 87.5 C-54.85985649 90.90588192 -58.33397356 94.07245051 -61.96484375 97.18359375 C-64.25544954 99.2279924 -66.4062614 101.37707374 -68.5625 103.5625 C-77.3347802 112.36497738 -77.3347802 112.36497738 -80 114 C-82.8125 114 -82.8125 114 -85 113 C-85.66 112.34 -86.32 111.68 -87 111 C-86.81021241 106.3343884 -84.65511105 104.13722902 -81.5 100.875 C-80.57575063 99.90068438 -79.65392541 98.92406419 -78.734375 97.9453125 C-78.03924805 97.20716309 -78.03924805 97.20716309 -77.33007812 96.45410156 C-75.36287366 94.30346467 -73.56195249 92.03197024 -71.75 89.75 C-67.46770037 84.43508911 -62.84401719 79.50683397 -58.15771484 74.55224609 C-53.97620284 70.1084711 -50.08095111 65.51219525 -46.2734375 60.7421875 C-43.62657785 57.54958359 -40.83433357 54.52559132 -38 51.5 C-33.56412113 46.76404288 -29.41236969 41.88524656 -25.3515625 36.8203125 C-22.63481466 33.56202024 -19.7747742 30.4697057 -16.875 27.375 C-8.97557141 18.90609791 -2.32876725 11.64383625 0 0 Z " fill="#2EBCBE" transform="translate(376,165)"/>
<path d="M0 0 C0.33 0 0.66 0 1 0 C1 11.22 1 22.44 1 34 C5.82496094 33.98839844 10.64992188 33.97679687 15.62109375 33.96484375 C18.66992321 33.95973683 21.71874743 33.95492305 24.76757812 33.95117188 C29.61142059 33.94518404 34.45524422 33.93808535 39.29907227 33.92456055 C43.20235971 33.91372957 47.10562699 33.90772272 51.0089283 33.90512276 C52.50133647 33.90326889 53.99374348 33.899649 55.48614311 33.89426994 C57.56948139 33.88705669 59.65273531 33.88600917 61.73608398 33.88647461 C62.92411118 33.884254 64.11213837 33.88203339 65.33616638 33.87974548 C68 34 68 34 69 35 C69.09627113 36.73359598 69.12187568 38.47114646 69.12025452 40.20741272 C69.12231651 41.90071968 69.12231651 41.90071968 69.12442017 43.62823486 C69.12082489 44.87763855 69.11722961 46.12704224 69.11352539 47.41430664 C69.11367142 48.72143112 69.11381744 50.0285556 69.1139679 51.37528992 C69.11425586 54.97017099 69.10835928 58.56501897 69.10139394 62.15989232 C69.09516026 65.91286252 69.09455659 69.6658334 69.09336853 73.41880798 C69.09025526 80.53030826 69.08204192 87.64179325 69.07201904 94.75328678 C69.06085778 102.84747066 69.05534742 110.94165526 69.05032361 119.03584492 C69.03985931 135.69057225 69.02225994 152.34528418 69 169 C68.67 169 68.34 169 68 169 C68 146.89 68 124.78 68 102 C37.97 102 7.94 102 -23 102 C-17.37414966 96.37414966 -17.37414966 96.37414966 -14.72265625 94.08984375 C-14.13331299 93.58066406 -13.54396973 93.07148438 -12.93676758 92.546875 C-12.31825928 92.01578125 -11.69975098 91.4846875 -11.0625 90.9375 C-10.0892981 90.09638672 -10.0892981 90.09638672 -9.09643555 89.23828125 C-5.76218025 86.36018208 -2.4138606 83.49989411 0.953125 80.66015625 C1.580979 80.12849854 2.20883301 79.59684082 2.85571289 79.04907227 C4.04410127 78.04409769 5.23581263 77.04303443 6.43139648 76.04663086 C11.27978426 71.9432621 16.21069112 67.42012973 17.37109375 60.921875 C17.55960498 54.75644891 16.10317882 50.6488143 12 46 C7.63128178 42.67145278 3.28607236 42.59419725 -2.0234375 42.40625 C-9.04972324 43.80781881 -14.77083766 49.23405931 -20.1875 53.6875 C-21.50179112 54.75360726 -22.81690962 55.81869528 -24.1328125 56.8828125 C-25.10782715 57.67220215 -25.10782715 57.67220215 -26.10253906 58.47753906 C-28.89062691 60.71461007 -31.72169821 62.89300153 -34.5625 65.0625 C-41.42529157 70.31150592 -48.21399047 75.65229855 -55 81 C-63.40933411 87.62347436 -71.83374703 94.2268028 -80.29858398 100.77929688 C-83.92100563 103.58676109 -87.52463418 106.41121135 -91.08203125 109.30078125 C-92.03045898 110.06551758 -92.03045898 110.06551758 -92.99804688 110.84570312 C-94.1708986 111.79383191 -95.33801961 112.74911363 -96.49804688 113.71289062 C-99.58792985 116.20079887 -101.98983812 117.74672662 -106 118 C-107.8125 116.9375 -107.8125 116.9375 -109 115 C-109.48046875 112.27734375 -109.48046875 112.27734375 -109 109 C-107.15911326 106.51828045 -104.84217022 104.62452356 -102.5 102.625 C-101.0375144 101.31974176 -99.57948237 100.00948305 -98.125 98.6953125 C-97.31546875 97.96473633 -96.5059375 97.23416016 -95.671875 96.48144531 C-89.92455848 91.14375114 -84.45977163 85.51075782 -78.94995117 79.92999268 C-69.38206648 70.24509897 -69.38206648 70.24509897 -65.09375 66.59375 C-59.05231225 61.43219344 -53.58126266 55.64751847 -48 50 C-35.18952437 37.03744976 -35.18952437 37.03744976 -29.02490234 31.78466797 C-24.95044281 28.19360224 -21.1186837 24.34336173 -17.27172852 20.51196289 C-15.81121467 19.06122327 -14.34034511 17.62152727 -12.86914062 16.18164062 C-7.76372921 11.1311389 -3.56442037 6.25065021 0 0 Z " fill="#159CB1" transform="translate(434,198)"/>
<path d="M0 0 C0 22.11 0 44.22 0 67 C-22.11 67 -44.22 67 -67 67 C-67 89.11 -67 111.22 -67 134 C-67.33 134 -67.66 134 -68 134 C-68 111.89 -68 89.78 -68 67 C-82.52 67 -97.04 67 -112 67 C-106.36961451 61.36961451 -106.36961451 61.36961451 -103.8359375 59.203125 C-103.27712891 58.72423828 -102.71832031 58.24535156 -102.14257812 57.75195312 C-101.55927734 57.25630859 -100.97597656 56.76066406 -100.375 56.25 C-99.44977539 55.46012695 -99.44977539 55.46012695 -98.50585938 54.65429688 C-94.00212743 50.82123442 -89.43536587 47.07106171 -84.84375 43.34375 C-81.52313406 40.60697862 -78.25956291 37.80893615 -75 35 C-69.98685227 30.68065728 -64.91462485 26.44902723 -59.77734375 22.27734375 C-55.65057378 18.89350846 -51.59214078 15.43119372 -47.53125 11.96875 C-33.29473684 0 -33.29473684 0 0 0 Z " fill="#107CB1" transform="translate(435,368)"/>
<path d="M0 0 C0.33 0 0.66 0 1 0 C1 22.11 1 44.22 1 67 C45.55 67 90.1 67 136 67 C136 89.44 136 111.88 136 135 C113.56 135 91.12 135 68 135 C68 112.89 68 90.78 68 68 C45.56 68 23.12 68 0 68 C0 45.56 0 23.12 0 0 Z " fill="#6EAAD6" transform="translate(97,435)"/>
<path d="M0 0 C22.44 0 44.88 0 68 0 C68 22.44 68 44.88 68 68 C90.11 68 112.22 68 135 68 C135 90.44 135 112.88 135 136 C112.56 136 90.12 136 67 136 C67 91.45 67 46.9 67 1 C44.89 1 22.78 1 0 1 C0 0.67 0 0.34 0 0 Z " fill="#6FD4D6" transform="translate(435,97)"/>
<path d="M0 0 C22.44 0 44.88 0 68 0 C68 22.44 68 44.88 68 68 C23.45 68 -21.1 68 -67 68 C-67 90.11 -67 112.22 -67 135 C-67.33 135 -67.66 135 -68 135 C-68 112.56 -68 90.12 -68 67 C-45.56 67 -23.12 67 0 67 C0 44.89 0 22.78 0 0 Z " fill="#70E4D6" transform="translate(165,30)"/>
<path d="M0 0 C22.11 0 44.22 0 67 0 C67 22.44 67 44.88 67 68 C44.89 68 22.78 68 0 68 C0 45.56 0 23.12 0 0 Z " fill="#2A94BE" transform="translate(435,367)"/>
<path d="M0 0 C22.11 0 44.22 0 67 0 C67 22.11 67 44.22 67 67 C44.89 67 22.78 67 0 67 C0 44.89 0 22.78 0 0 Z " fill="#6EAAD6" transform="translate(368,503)"/>
<path d="M0 0 C22.11 0 44.22 0 67 0 C67 22.11 67 44.22 67 67 C44.89 67 22.78 67 0 67 C0 44.89 0 22.78 0 0 Z " fill="#3E95C7" transform="translate(435,435)"/>
<path d="M0 0 C22.11 0 44.22 0 67 0 C67 22.11 67 44.22 67 67 C44.89 67 22.78 67 0 67 C0 44.89 0 22.78 0 0 Z " fill="#2B88BF" transform="translate(368,435)"/>
<path d="M0 0 C22.11 0 44.22 0 67 0 C67 22.11 67 44.22 67 67 C44.89 67 22.78 67 0 67 C0 44.89 0 22.78 0 0 Z " fill="#3E95C7" transform="translate(98,435)"/>
<path d="M0 0 C22.11 0 44.22 0 67 0 C67 22.11 67 44.22 67 67 C44.89 67 22.78 67 0 67 C0 44.89 0 22.78 0 0 Z " fill="#6EBAD6" transform="translate(503,368)"/>
<path d="M0 0 C22.11 0 44.22 0 67 0 C67 22.11 67 44.22 67 67 C44.89 67 22.78 67 0 67 C0 44.89 0 22.78 0 0 Z " fill="#6EBAD6" transform="translate(30,368)"/>
<path d="M0 0 C22.11 0 44.22 0 67 0 C67 22.11 67 44.22 67 67 C44.89 67 22.78 67 0 67 C0 44.89 0 22.78 0 0 Z " fill="#2EBCBE" transform="translate(98,165)"/>
<path d="M0 0 C22.11 0 44.22 0 67 0 C67 22.11 67 44.22 67 67 C44.89 67 22.78 67 0 67 C0 44.89 0 22.78 0 0 Z " fill="#6FD4D6" transform="translate(30,165)"/>
<path d="M0 0 C22.11 0 44.22 0 67 0 C67 22.11 67 44.22 67 67 C44.89 67 22.78 67 0 67 C0 44.89 0 22.78 0 0 Z " fill="#41CFC7" transform="translate(435,98)"/>
<path d="M0 0 C22.11 0 44.22 0 67 0 C67 22.11 67 44.22 67 67 C44.89 67 22.78 67 0 67 C0 44.89 0 22.78 0 0 Z " fill="#41CFC7" transform="translate(98,98)"/>
<path d="M0 0 C22.11 0 44.22 0 67 0 C67 22.11 67 44.22 67 67 C44.89 67 22.78 67 0 67 C0 44.89 0 22.78 0 0 Z " fill="#70E5D6" transform="translate(368,30)"/>
<path d="M0 0 C2.694124 4.041186 3.94486897 8.46492431 5.4375 13.04882812 C6.57890812 16.41537495 7.67432445 19.47037849 9.54541016 22.51318359 C15.50236433 32.37158474 14.47422621 41.64940228 13.875 52.75 C13.58625 59.1025 13.2975 65.455 13 72 C-9.11 72 -31.22 72 -54 72 C-54 49.56 -54 27.12 -54 4 C-36.18 4 -18.36 4 0 4 C0 2.68 0 1.36 0 0 Z " fill="#2B94BF" transform="translate(152,363)"/>
<path d="M0 0 C18.15 0 36.3 0 55 0 C53.9395122 8.48390244 53.9395122 8.48390244 52.4375 13.0625 C48.84988501 27.0241544 50.33312339 42.46816383 53.34375 56.40625 C54 60 54 60 54 67 C36.18 67 18.36 67 0 67 C0 44.89 0 22.78 0 0 Z " fill="#128BB1" transform="translate(98,300)"/>
<path d="M0 0 C19.47 0 38.94 0 59 0 C59 7.92 59 15.84 59 24 C58.34 24.33 57.68 24.66 57 25 C56.54625 23.80375 56.0925 22.6075 55.625 21.375 C52.85061823 15.88485016 48.62947988 13.22749204 43 11 C36.93897474 9.71376716 31.79085804 10.74539325 26.55078125 13.984375 C21.74359463 17.78300945 17.55410434 22.22708475 13.30078125 26.625 C10.27626675 29.74950551 7.10703887 32.61999687 3.7890625 35.4296875 C1.05498094 37.82947087 -1.45263272 40.44409678 -4.00390625 43.03515625 C-5.92107177 44.92230744 -7.89575322 46.68685375 -9.9375 48.4375 C-12.92801716 51.00665271 -15.73116684 53.69317256 -18.5 56.5 C-21.88241399 59.9288279 -25.38070442 63.12048518 -29.03515625 66.25390625 C-31.10820324 68.09615675 -33.05435802 70.02401662 -35 72 C-37.55990134 74.59982183 -40.1677954 77.06268398 -42.9375 79.4375 C-45.92801716 82.00665271 -48.73116684 84.69317256 -51.5 87.5 C-54.85985649 90.90588192 -58.33397356 94.07245051 -61.96484375 97.18359375 C-64.25544954 99.2279924 -66.4062614 101.37707374 -68.5625 103.5625 C-77.3347802 112.36497738 -77.3347802 112.36497738 -80 114 C-82.8125 114 -82.8125 114 -85 113 C-85.66 112.34 -86.32 111.68 -87 111 C-86.81021241 106.3343884 -84.65511105 104.13722902 -81.5 100.875 C-80.57575063 99.90068438 -79.65392541 98.92406419 -78.734375 97.9453125 C-78.03924805 97.20716309 -78.03924805 97.20716309 -77.33007812 96.45410156 C-75.36287366 94.30346467 -73.56195249 92.03197024 -71.75 89.75 C-67.46770037 84.43508911 -62.84401719 79.50683397 -58.15771484 74.55224609 C-53.97620284 70.1084711 -50.08095111 65.51219525 -46.2734375 60.7421875 C-43.62657785 57.54958359 -40.83433357 54.52559132 -38 51.5 C-33.56412113 46.76404288 -29.41236969 41.88524656 -25.3515625 36.8203125 C-22.63481466 33.56202024 -19.7747742 30.4697057 -16.875 27.375 C-8.97557141 18.90609791 -2.32876725 11.64383625 0 0 Z " fill="#18ADB2" transform="translate(376,165)"/>
<path d="M0 0 C-1.28312702 2.84663963 -2.57264483 4.79249939 -4.87890625 6.890625 C-5.75313232 7.6952417 -5.75313232 7.6952417 -6.64501953 8.51611328 C-7.59417236 9.37438721 -7.59417236 9.37438721 -8.5625 10.25 C-9.92626149 11.50208129 -11.28952351 12.75470678 -12.65234375 14.0078125 C-13.36503418 14.66040039 -14.07772461 15.31298828 -14.81201172 15.98535156 C-17.72154278 18.66437972 -20.59881827 21.37657295 -23.47338867 24.09301758 C-25.60980985 26.11065442 -27.75387224 28.11993254 -29.8984375 30.12890625 C-32.55987133 32.62735692 -35.18705494 35.15462725 -37.7890625 37.71484375 C-38.66957275 38.5663501 -38.66957275 38.5663501 -39.56787109 39.43505859 C-40.65805323 40.48979795 -41.73733801 41.55596612 -42.80322266 42.63525391 C-44.265625 44.03515625 -44.265625 44.03515625 -47 46 C-50.47089935 45.91570673 -51.53970474 45.46029526 -54 43 C-53.81021241 38.3343884 -51.65511105 36.13722902 -48.5 32.875 C-47.57444377 31.899387 -46.65131568 30.92146543 -45.73046875 29.94140625 C-45.26688965 29.44914551 -44.80331055 28.95688477 -44.32568359 28.44970703 C-42.37980535 26.32178346 -40.60206611 24.07246634 -38.8125 21.8125 C-37.65904465 20.42754838 -36.50541853 19.04273589 -35.34912109 17.66015625 C-34.36067322 16.44382517 -33.39834525 15.20614207 -32.45166016 13.95703125 C-22.76366571 1.24593259 -15.99281594 -2.47897255 0 0 Z " fill="#1A9FB3" transform="translate(343,233)"/>
<path d="M0 0 C3.6844626 3.6844626 6.53226834 6.9247725 9.5625 11.0625 C17.06899352 21.04540676 25.83310774 29.70859242 36 37 C35.67 37.99 35.34 38.98 35 40 C23.45 40 11.9 40 0 40 C0 26.8 0 13.6 0 0 Z " fill="#127EB2" transform="translate(165,395)"/>
<path d="M0 0 C0.33 0 0.66 0 1 0 C1 11.22 1 22.44 1 34 C23.11 34 45.22 34 68 34 C68 34.33 68 34.66 68 35 C35.33 35 2.66 35 -31 35 C-27.42147288 30.82505169 -24.11315473 26.99852418 -20.21484375 23.22265625 C-19.35439453 22.37896484 -18.49394531 21.53527344 -17.60742188 20.66601562 C-15.82741976 18.93028569 -14.04355654 17.19850657 -12.25585938 15.47070312 C-7.30917997 10.60566434 -3.46117017 6.01003995 0 0 Z " fill="#1AADB3" transform="translate(434,198)"/>
<path d="M0 0 C-3.05248296 4.14958564 -6.38304758 7.15471518 -10.4375 10.25 C-10.99759766 10.69601562 -11.55769531 11.14203125 -12.13476562 11.6015625 C-15.34224339 14.07173208 -17.90739805 15.74602647 -22 16 C-23.8125 14.9375 -23.8125 14.9375 -25 13 C-25.6875 10.25 -25.6875 10.25 -25 7 C-19.28541659 -2.30020437 -9.52146951 -0.68165066 0 0 Z " fill="#1A90B4" transform="translate(350,300)"/>
</svg>
